<svg width="158" height="108" viewBox="0 0 158 108" fill="none" xmlns="http://www.w3.org/2000/svg">
<g clip-path="url(#clip0_77_56)">
<rect width="158" height="108" fill="#f9fafb"/>
<circle cx="72" cy="25" r="41" fill="#BFFFB5"/>
<path d="M179 34.0001C179 61.6143 156.614 84.0001 129 84.0001C101.386 84.0001 79 61.6143 79 34.0001C79 6.38585 101.386 -15.9999 129 -15.9999C156.614 -15.9999 179 6.38585 179 34.0001Z" fill="#AAFAAE"/>
<path d="M60 -0.5C60 13.5833 47.2401 25 31.5 25C15.7599 25 3 13.5833 3 -0.5C3 -14.5833 15.7599 -26 31.5 -26C47.2401 -26 60 -14.5833 60 -0.5Z" fill="#88FC9A"/>
<path d="M56.0352 48.2637L56.1475 48.6094H58.2412L56.8408 49.627L56.5469 49.8398L56.6592 50.1855L57.1943 51.832L55.7939 50.8145L55.5 50.6006L55.2061 50.8145L53.8047 51.832L54.3408 50.1855L54.4531 49.8398L54.1592 49.627L52.7588 48.6094H54.8525L54.9648 48.2637L55.5 46.6172L56.0352 48.2637Z" fill="#DCDF83" stroke="#4F4949"/>
<path d="M144.871 23.3008L144.983 23.6455H148.168L145.886 25.3037L145.592 25.5176L145.704 25.8623L146.575 28.5439L144.294 26.8877L144 26.6738L143.706 26.8877L141.424 28.5439L142.296 25.8623L142.408 25.5176L142.114 25.3037L139.832 23.6455H143.017L143.129 23.3008L144 20.6182L144.871 23.3008Z" fill="#DCDF83" stroke="#4F4949"/>
<path d="M119.871 64.3008L119.983 64.6455H123.168L120.886 66.3037L120.592 66.5176L120.704 66.8623L121.575 69.5439L119.294 67.8877L119 67.6738L118.706 67.8877L116.424 69.5439L117.296 66.8623L117.408 66.5176L117.114 66.3037L114.832 64.6455H118.017L118.129 64.3008L119 61.6182L119.871 64.3008Z" fill="#DCDF83" stroke="#4F4949"/>
<path d="M68.0957 14.9912L68.208 15.3369H72.1191L69.249 17.4219L68.9551 17.6357L69.0674 17.9805L70.1631 21.3535L67.2939 19.2695L67 19.0557L66.7061 19.2695L63.8359 21.3535L64.9326 17.9805L65.0449 17.6357L64.751 17.4219L61.8809 15.3369H65.792L65.9043 14.9912L67 11.6182L68.0957 14.9912Z" fill="#DCDF83" stroke="#4F4949"/>
<path d="M25.4834 8.64551L25.5957 8.99121H29.1426L26.5674 10.8623L26.2734 11.0762L26.3857 11.4219L27.3691 14.4492L24.7939 12.5781L24.5 12.3643L24.2061 12.5781L21.6299 14.4492L22.6143 11.4219L22.7266 11.0762L22.4326 10.8623L19.8574 8.99121H23.4043L23.5166 8.64551L24.5 5.61816L25.4834 8.64551Z" fill="#DCDF83" stroke="#4F4949"/>
</g>
<defs>
<clipPath id="clip0_77_56">
<rect width="158" height="108" fill="white"/>
</clipPath>
</defs>
</svg>
