<svg width="113" height="41" viewBox="0 0 113 41" fill="none" xmlns="http://www.w3.org/2000/svg">
<rect width="113" height="41" fill="white"/>
<path d="M21.8667 30L9 23.5L21.8667 15L30.4 30L42.5 23.5L30.4 15" stroke="#71E078" stroke-width="4"/>
<path d="M44.7805 5.93883C44.7809 5.76289 44.7493 5.58862 44.6874 5.42609C44.6255 5.26356 44.5346 5.11602 44.42 4.992L40.1949 0.392441C40.0807 0.268025 39.945 0.16933 39.7957 0.101994C39.6464 0.034658 39.4864 0 39.3248 0C39.1632 0 39.0031 0.034658 38.8538 0.101994C38.7045 0.16933 38.5689 0.268025 38.4546 0.392441L36.7432 2.2553L33.2219 3.69295C33.0197 3.77543 32.841 3.9144 32.7037 4.09588C32.5665 4.27736 32.4755 4.49497 32.44 4.72683L31.0103 14.0625C30.9924 14.1778 30.9978 14.2959 31.0262 14.4087C31.0546 14.5214 31.1052 14.6261 31.1745 14.7153C31.2439 14.8046 31.3303 14.8763 31.4277 14.9255C31.5252 14.9746 31.6313 15.0001 31.7387 15C31.7799 15.0002 31.8211 14.9966 31.8617 14.9893L40.4404 13.4324C40.6532 13.3934 40.8529 13.2943 41.0195 13.1451C41.1862 12.9959 41.314 12.8018 41.3902 12.582L42.7104 8.74851L44.4218 6.88565C44.5362 6.76149 44.6267 6.61387 44.6883 6.45135C44.7499 6.28882 44.7812 6.11462 44.7805 5.93883ZM40.0559 11.8729L33.8918 12.9912L35.9219 10.7814C36.3681 11.0007 36.8708 11.0426 37.3424 10.9C37.8141 10.7573 38.2249 10.4391 38.5032 10.0008C38.7815 9.5624 38.9097 9.03167 38.8656 8.501C38.8214 7.97033 38.6076 7.47333 38.2615 7.09655C37.9153 6.71977 37.4587 6.48708 36.9712 6.43901C36.4836 6.39094 35.9961 6.53052 35.5933 6.83346C35.1906 7.1364 34.8983 7.58349 34.7672 8.09689C34.6362 8.61029 34.6747 9.15745 34.8761 9.64311L32.846 11.8528L33.8734 5.14333L36.9677 3.88044L41.2155 8.50477L40.0559 11.8729ZM36.168 8.70566C36.168 8.57322 36.2041 8.44376 36.2717 8.33364C36.3393 8.22352 36.4353 8.1377 36.5477 8.08702C36.6601 8.03634 36.7838 8.02307 36.9032 8.04891C37.0225 8.07475 37.1321 8.13852 37.2182 8.23217C37.3042 8.32582 37.3628 8.44513 37.3865 8.57502C37.4103 8.70491 37.3981 8.83955 37.3515 8.9619C37.3049 9.08426 37.2261 9.18884 37.1249 9.26242C37.0238 9.33599 36.9048 9.37527 36.7832 9.37527C36.62 9.37527 36.4635 9.30472 36.3482 9.17914C36.2328 9.05357 36.168 8.88325 36.168 8.70566ZM42.0737 7.16555L38.1981 2.94701L39.3263 1.71894L43.2019 5.93749L42.0737 7.16555Z" fill="#1E1E1E"/>
<path d="M54.6 15.28L57.56 14.88L56.14 21.56C56.78 21.5067 57.3667 21.2267 57.9 20.72C58.4467 20.2133 58.8733 19.5867 59.18 18.84C59.4867 18.0933 59.64 17.36 59.64 16.64C59.64 15.84 59.4333 15.1867 59.02 14.68C58.6067 14.1733 57.9867 13.92 57.16 13.92C55.5333 13.92 54.26 14.3467 53.34 15.2C52.4333 16.0533 51.98 17.2467 51.98 18.78C51.98 19.2733 52.0267 19.62 52.12 19.82C52.2133 20.0067 52.26 20.1133 52.26 20.14C51.54 20.14 51 19.9933 50.64 19.7C50.2933 19.3933 50.12 18.8933 50.12 18.2C50.12 17.3467 50.4667 16.52 51.16 15.72C51.8667 14.9067 52.7667 14.2533 53.86 13.76C54.9533 13.2533 56.0467 13 57.14 13C58.1933 13 59.0733 13.18 59.78 13.54C60.4867 13.9 61.0067 14.38 61.34 14.98C61.6867 15.5667 61.86 16.22 61.86 16.94C61.86 17.8067 61.62 18.6533 61.14 19.48C60.6733 20.3067 60 20.9867 59.12 21.52C58.24 22.04 57.2267 22.3 56.08 22.3H55.98L54.76 28H51.88L54.6 15.28ZM63.8648 28.12C63.1048 28.12 62.4715 27.86 61.9648 27.34C61.4582 26.82 61.2048 26.0067 61.2048 24.9C61.2048 23.9133 61.3982 22.88 61.7848 21.8C62.1848 20.7067 62.7715 19.7867 63.5448 19.04C64.3315 18.28 65.2648 17.9 66.3448 17.9C66.8915 17.9 67.2982 17.9933 67.5648 18.18C67.8315 18.3667 67.9648 18.6133 67.9648 18.92V19.06L68.1848 18H71.0648L69.6248 24.8C69.5715 25 69.5448 25.2133 69.5448 25.44C69.5448 26.0133 69.8182 26.3 70.3648 26.3C70.7382 26.3 71.0582 26.1267 71.3248 25.78C71.6048 25.4333 71.8248 24.98 71.9848 24.42H72.8248C72.3315 25.86 71.7182 26.84 70.9848 27.36C70.2648 27.8667 69.5382 28.12 68.8048 28.12C68.2448 28.12 67.7915 27.9667 67.4448 27.66C67.1115 27.34 66.9115 26.88 66.8448 26.28C66.4582 26.8267 66.0248 27.2733 65.5448 27.62C65.0782 27.9533 64.5182 28.12 63.8648 28.12ZM65.1648 26.18C65.4982 26.18 65.8248 26.0267 66.1448 25.72C66.4782 25.4 66.7048 24.9667 66.8248 24.42L67.7848 19.9C67.7848 19.7267 67.7182 19.56 67.5848 19.4C67.4515 19.2267 67.2448 19.14 66.9648 19.14C66.4315 19.14 65.9515 19.4533 65.5248 20.08C65.0982 20.6933 64.7648 21.44 64.5248 22.32C64.2848 23.1867 64.1648 23.9533 64.1648 24.62C64.1648 25.2867 64.2582 25.7133 64.4448 25.9C64.6448 26.0867 64.8848 26.18 65.1648 26.18ZM73.3522 18H76.2322L75.9722 19.24C76.4255 18.84 76.8322 18.5333 77.1922 18.32C77.5655 18.1067 77.9655 18 78.3922 18C78.8189 18 79.1522 18.1467 79.3922 18.44C79.6455 18.7333 79.7722 19.0867 79.7722 19.5C79.7722 19.8867 79.6455 20.2267 79.3922 20.52C79.1389 20.8133 78.7855 20.96 78.3322 20.96C78.0389 20.96 77.8389 20.8933 77.7322 20.76C77.6389 20.6133 77.5655 20.4067 77.5122 20.14C77.4722 19.9667 77.4322 19.84 77.3922 19.76C77.3522 19.68 77.2789 19.64 77.1722 19.64C76.8922 19.64 76.6522 19.7 76.4522 19.82C76.2655 19.9267 76.0189 20.12 75.7122 20.4L74.1122 28H71.2322L73.3522 18ZM82.3717 28.12C81.3851 28.12 80.6184 27.8667 80.0717 27.36C79.5251 26.84 79.2517 26.0333 79.2517 24.94C79.2517 24.02 79.4317 23.0067 79.7917 21.9C80.1651 20.7933 80.7517 19.84 81.5517 19.04C82.3651 18.2267 83.3917 17.82 84.6317 17.82C85.4317 17.82 85.9984 17.9933 86.3317 18.34C86.6784 18.6867 86.8517 19.1267 86.8517 19.66C86.8517 20.1267 86.7517 20.4867 86.5517 20.74C86.3517 20.9933 86.0984 21.12 85.7917 21.12C85.5651 21.12 85.3317 21.04 85.0917 20.88C85.2517 20.44 85.3317 20.0467 85.3317 19.7C85.3317 19.4467 85.2851 19.2467 85.1917 19.1C85.0984 18.9533 84.9584 18.88 84.7717 18.88C84.3717 18.88 83.9717 19.2067 83.5717 19.86C83.1717 20.5133 82.8451 21.3067 82.5917 22.24C82.3384 23.1733 82.2117 24.0133 82.2117 24.76C82.2117 25.4133 82.3251 25.86 82.5517 26.1C82.7784 26.3267 83.1451 26.44 83.6517 26.44C84.3717 26.44 84.9851 26.2733 85.4917 25.94C86.0117 25.6067 86.5784 25.1 87.1917 24.42H87.8717C86.3917 26.8867 84.5584 28.12 82.3717 28.12ZM90.0475 28.12C89.0608 28.12 88.2942 27.8667 87.7475 27.36C87.2008 26.84 86.9275 26.0333 86.9275 24.94C86.9275 24.02 87.1075 23.0067 87.4675 21.9C87.8408 20.7933 88.4275 19.84 89.2275 19.04C90.0408 18.2267 91.0675 17.82 92.3075 17.82C93.1075 17.82 93.6742 17.9933 94.0075 18.34C94.3542 18.6867 94.5275 19.1267 94.5275 19.66C94.5275 20.1267 94.4275 20.4867 94.2275 20.74C94.0275 20.9933 93.7742 21.12 93.4675 21.12C93.2408 21.12 93.0075 21.04 92.7675 20.88C92.9275 20.44 93.0075 20.0467 93.0075 19.7C93.0075 19.4467 92.9608 19.2467 92.8675 19.1C92.7742 18.9533 92.6342 18.88 92.4475 18.88C92.0475 18.88 91.6475 19.2067 91.2475 19.86C90.8475 20.5133 90.5208 21.3067 90.2675 22.24C90.0142 23.1733 89.8875 24.0133 89.8875 24.76C89.8875 25.4133 90.0008 25.86 90.2275 26.1C90.4542 26.3267 90.8208 26.44 91.3275 26.44C92.0475 26.44 92.6608 26.2733 93.1675 25.94C93.6875 25.6067 94.2542 25.1 94.8675 24.42H95.5475C94.0675 26.8867 92.2342 28.12 90.0475 28.12ZM101.723 28.12C101.017 28.12 100.503 27.9067 100.183 27.48C99.8633 27.0533 99.7033 26.5133 99.7033 25.86C99.7033 25.58 99.7366 25.2667 99.8033 24.92C99.8699 24.56 99.9366 24.2133 100.003 23.88C100.083 23.5467 100.137 23.3333 100.163 23.24C100.27 22.7733 100.37 22.3133 100.463 21.86C100.557 21.4067 100.603 21.04 100.603 20.76C100.603 20.08 100.363 19.74 99.8833 19.74C99.5633 19.74 99.2699 19.8867 99.0033 20.18C98.7499 20.4733 98.5433 20.86 98.3833 21.34L96.9633 28H94.0833L96.9833 14.4L99.9433 14L98.8633 19.02C99.5299 18.2867 100.31 17.92 101.203 17.92C101.883 17.92 102.423 18.1067 102.823 18.48C103.223 18.8533 103.423 19.42 103.423 20.18C103.423 20.5667 103.377 21 103.283 21.48C103.19 21.9467 103.057 22.52 102.883 23.2C102.777 23.6133 102.677 24.02 102.583 24.42C102.503 24.8067 102.463 25.1133 102.463 25.34C102.463 25.6067 102.523 25.8133 102.643 25.96C102.763 26.1067 102.97 26.18 103.263 26.18C103.583 26.18 103.803 26.14 103.923 26.06C103.843 26.74 103.597 27.2533 103.183 27.6C102.783 27.9467 102.297 28.12 101.723 28.12Z" fill="#2D2727"/>
</svg>
