<svg width="129" height="41" viewBox="0 0 129 41" fill="none" xmlns="http://www.w3.org/2000/svg">
<g clip-path="url(#clip0_3_2)">
<rect width="129" height="41" fill="white"/>
<path d="M15.5333 30L7 20.303L28.8667 15V30H47L37.4 15" stroke="#71E078" stroke-width="4"/>
<path d="M57.6829 5.93882C57.6834 5.76289 57.6473 5.58862 57.5767 5.42609C57.506 5.26356 57.4022 5.11601 57.2714 4.992L52.4481 0.392441C52.3177 0.268025 52.1628 0.16933 51.9923 0.101994C51.8219 0.034658 51.6392 0 51.4547 0C51.2702 0 51.0875 0.034658 50.9171 0.101994C50.7466 0.16933 50.5918 0.268025 50.4613 0.392441L48.5076 2.2553L44.4877 3.69295C44.2569 3.77543 44.0528 3.9144 43.8962 4.09588C43.7395 4.27736 43.6356 4.49497 43.5951 4.72683L41.963 14.0625C41.9426 14.1778 41.9488 14.2959 41.9811 14.4087C42.0135 14.5214 42.0713 14.6261 42.1505 14.7153C42.2297 14.8046 42.3283 14.8763 42.4395 14.9255C42.5508 14.9746 42.6719 15.0001 42.7945 15C42.8416 15.0002 42.8885 14.9966 42.935 14.9893L52.7283 13.4324C52.9712 13.3934 53.1992 13.2943 53.3894 13.1451C53.5797 12.9959 53.7256 12.8018 53.8126 12.582L55.3197 8.74851L57.2735 6.88565C57.404 6.76149 57.5074 6.61387 57.5777 6.45135C57.648 6.28882 57.6837 6.11462 57.6829 5.93882ZM52.2894 11.8729L45.2525 12.9912L47.57 10.7814C48.0794 11.0007 48.6533 11.0426 49.1917 10.9C49.7301 10.7573 50.1991 10.4391 50.5168 10.0008C50.8345 9.5624 50.9809 9.03167 50.9305 8.501C50.8801 7.97033 50.636 7.47333 50.2409 7.09655C49.8457 6.71977 49.3244 6.48708 48.7679 6.43901C48.2113 6.39093 47.6547 6.53052 47.1949 6.83346C46.7352 7.1364 46.4015 7.58349 46.2518 8.09689C46.1022 8.61028 46.1462 9.15745 46.3762 9.64311L44.0586 11.8528L45.2314 5.14333L48.7639 3.88044L53.6132 8.50477L52.2894 11.8729ZM47.8509 8.70565C47.8509 8.57322 47.8921 8.44376 47.9693 8.33364C48.0465 8.22352 48.1562 8.1377 48.2845 8.08702C48.4128 8.03633 48.554 8.02307 48.6902 8.04891C48.8265 8.07475 48.9516 8.13852 49.0498 8.23217C49.148 8.32582 49.2149 8.44513 49.242 8.57502C49.2691 8.70491 49.2552 8.83955 49.2021 8.9619C49.1489 9.08426 49.0589 9.18884 48.9434 9.26242C48.8279 9.33599 48.6921 9.37527 48.5532 9.37527C48.367 9.37527 48.1883 9.30472 48.0566 9.17914C47.9249 9.05357 47.8509 8.88325 47.8509 8.70565ZM54.5929 7.16555L50.1685 2.947L51.4565 1.71894L55.8809 5.93749L54.5929 7.16555Z" fill="#1E1E1E"/>
<path d="M55.7031 28.3008L57.1973 27.6953V18.3008L55.7031 17.6953V15.9961L60.3027 15.8984H62.1973C63.7142 15.8984 64.9023 16.2728 65.7617 17.0215C66.6276 17.7702 67.0605 18.7956 67.0605 20.0977C67.0605 21.7513 66.569 22.998 65.5859 23.8379C64.6094 24.6777 63.1999 25.0977 61.3574 25.0977H60.3027V27.6953L61.7969 28.3008V30H55.7031V28.3008ZM61.3574 22.7637C62.1973 22.7637 62.8418 22.5716 63.291 22.1875C63.7402 21.7969 63.9648 21.2337 63.9648 20.498C63.9648 19.834 63.7858 19.3034 63.4277 18.9062C63.0762 18.5026 62.5684 18.3008 61.9043 18.3008H60.3027V22.7637H61.3574ZM74.6191 28.7012C74.6191 28.7272 74.4466 28.8737 74.1016 29.1406C73.7565 29.4076 73.3431 29.6517 72.8613 29.873C72.3796 30.0879 71.8848 30.1953 71.377 30.1953C70.4004 30.1953 69.6354 29.9251 69.082 29.3848C68.5352 28.8379 68.2617 28.0632 68.2617 27.0605C68.2617 25.9147 68.6719 25.0781 69.4922 24.5508C70.3125 24.0234 71.5072 23.7598 73.0762 23.7598H74.4824V22.6562C74.4824 21.6797 73.9681 21.1947 72.9395 21.2012C72.6335 21.2012 72.3503 21.224 72.0898 21.2695C71.8294 21.3151 71.6211 21.3639 71.4648 21.416C71.3151 21.4616 71.2207 21.4909 71.1816 21.5039L70.8789 22.7637H69.082L68.9453 19.8047C69.0625 19.7656 69.349 19.681 69.8047 19.5508C70.2669 19.4206 70.8171 19.2969 71.4551 19.1797C72.0996 19.0625 72.7083 19.0039 73.2812 19.0039C74.3099 19.0039 75.127 19.1341 75.7324 19.3945C76.3379 19.6484 76.7806 20.0651 77.0605 20.6445C77.3405 21.2174 77.4805 21.9889 77.4805 22.959V27.9004L78.9844 28.2617V29.8633L74.9805 30L74.6191 28.7012ZM71.1621 26.7578C71.1621 27.1484 71.263 27.4479 71.4648 27.6562C71.6732 27.8581 71.9661 27.959 72.3438 27.959C72.6628 27.959 72.9785 27.8743 73.291 27.7051C73.6035 27.5293 73.8672 27.3503 74.082 27.168C74.2969 26.9792 74.4303 26.8555 74.4824 26.7969V25.459H73.3398C72.5651 25.459 72.0085 25.5632 71.6699 25.7715C71.3314 25.9798 71.1621 26.3086 71.1621 26.7578ZM84.5508 20.5762C84.5508 20.5501 84.707 20.3971 85.0195 20.1172C85.332 19.8372 85.6934 19.5833 86.1035 19.3555C86.5202 19.1211 86.9303 19.0039 87.334 19.0039C87.653 19.0039 87.9525 19.0299 88.2324 19.082C88.5124 19.1341 88.7305 19.1895 88.8867 19.248C89.0495 19.3066 89.1504 19.3424 89.1895 19.3555L89.0332 23.2031H87.2363L86.9336 21.5039C86.5885 21.5039 86.2533 21.5885 85.9277 21.7578C85.6087 21.9206 85.3353 22.1029 85.1074 22.3047C84.8861 22.5 84.7754 22.6042 84.7754 22.6172V27.9004L86.7773 28.3984V30H80.1758V28.3984L81.7773 27.9004V21.3965L80.1758 20.8984V19.2969L84.375 19.1992L84.5508 20.5762ZM99.4922 28.4961C99.043 28.8997 98.4538 29.2839 97.7246 29.6484C97.002 30.013 96.1589 30.1953 95.1953 30.1953C93.5547 30.1953 92.2786 29.7168 91.3672 28.7598C90.4557 27.8027 90 26.4681 90 24.7559C90 22.972 90.4818 21.569 91.4453 20.5469C92.4154 19.5182 93.7663 19.0039 95.498 19.0039C96.0059 19.0039 96.5169 19.056 97.0312 19.1602C97.5521 19.2643 97.985 19.3717 98.3301 19.4824C98.6816 19.5866 98.903 19.6582 98.9941 19.6973L98.8965 22.9785H97.0996L96.8164 21.5625C96.7513 21.5495 96.5885 21.5202 96.3281 21.4746C96.0677 21.4225 95.7715 21.3965 95.4395 21.3965C94.7038 21.3965 94.1276 21.6471 93.7109 22.1484C93.3008 22.6497 93.0957 23.3854 93.0957 24.3555C93.0957 25.4622 93.304 26.3151 93.7207 26.9141C94.1439 27.5065 94.7689 27.8027 95.5957 27.8027C96.1165 27.8027 96.5723 27.7246 96.9629 27.5684C97.36 27.4056 97.6921 27.2396 97.959 27.0703C98.2259 26.901 98.4049 26.7904 98.4961 26.7383L99.4922 28.4961ZM110 28.4961C109.551 28.8997 108.962 29.2839 108.232 29.6484C107.51 30.013 106.667 30.1953 105.703 30.1953C104.062 30.1953 102.786 29.7168 101.875 28.7598C100.964 27.8027 100.508 26.4681 100.508 24.7559C100.508 22.972 100.99 21.569 101.953 20.5469C102.923 19.5182 104.274 19.0039 106.006 19.0039C106.514 19.0039 107.025 19.056 107.539 19.1602C108.06 19.2643 108.493 19.3717 108.838 19.4824C109.189 19.5866 109.411 19.6582 109.502 19.6973L109.404 22.9785H107.607L107.324 21.5625C107.259 21.5495 107.096 21.5202 106.836 21.4746C106.576 21.4225 106.279 21.3965 105.947 21.3965C105.212 21.3965 104.635 21.6471 104.219 22.1484C103.809 22.6497 103.604 23.3854 103.604 24.3555C103.604 25.4622 103.812 26.3151 104.229 26.9141C104.652 27.5065 105.277 27.8027 106.104 27.8027C106.624 27.8027 107.08 27.7246 107.471 27.5684C107.868 27.4056 108.2 27.2396 108.467 27.0703C108.734 26.901 108.913 26.7904 109.004 26.7383L110 28.4961ZM115.312 20.3613C115.723 20.0163 116.221 19.7038 116.807 19.4238C117.399 19.1439 118.021 19.0039 118.672 19.0039C119.688 19.0039 120.465 19.3197 121.006 19.9512C121.546 20.5827 121.816 21.4648 121.816 22.5977V27.9004L123.213 28.3984V30H117.773V28.3984L118.809 27.9199V23.0762C118.809 22.0085 118.369 21.4779 117.49 21.4844C117.158 21.4844 116.833 21.5658 116.514 21.7285C116.195 21.8848 115.928 22.0475 115.713 22.2168C115.498 22.3796 115.365 22.487 115.312 22.5391V27.9004L116.377 28.3984V30H110.713V28.3984L112.314 27.9004V16.6602L110.713 16.2598V14.6582L115.312 14.502V20.3613Z" fill="#2D2727"/>
</g>
<defs>
<clipPath id="clip0_3_2">
<rect width="129" height="41" fill="white"/>
</clipPath>
</defs>
</svg>

