<svg width="50" height="50" viewBox="0 0 50 50" fill="none" xmlns="http://www.w3.org/2000/svg">
<rect x="0.5" y="0.5" width="49" height="49" rx="24.5" fill="white"/>
<rect x="0.5" y="0.5" width="49" height="49" rx="24.5" stroke="#3BDD40"/>
<path d="M20.8667 33L8 26.5L20.8667 18L29.4 33L41.5 26.5L29.4 18" stroke="#71E078" stroke-width="4"/>
<path d="M38 12.5633C38.0003 12.4577 37.9796 12.3532 37.9392 12.2557C37.8988 12.1581 37.8394 12.0696 37.7646 11.9952L35.0052 9.23546C34.9306 9.16082 34.842 9.1016 34.7445 9.0612C34.6469 9.02079 34.5424 9 34.4369 9C34.3313 9 34.2268 9.02079 34.1293 9.0612C34.0318 9.1016 33.9432 9.16082 33.8686 9.23546L32.7508 10.3532L30.4511 11.2158C30.319 11.2653 30.2023 11.3486 30.1127 11.4575C30.023 11.5664 29.9636 11.697 29.9405 11.8361L29.0067 17.4375C28.9951 17.5067 28.9986 17.5776 29.0171 17.6452C29.0356 17.7129 29.0687 17.7757 29.114 17.8292C29.1593 17.8828 29.2157 17.9258 29.2794 17.9553C29.343 17.9848 29.4123 18 29.4824 18C29.5094 18.0001 29.5362 17.998 29.5628 17.9936L35.1655 17.0595C35.3045 17.036 35.4349 16.9766 35.5437 16.8871C35.6526 16.7975 35.736 16.6811 35.7858 16.5492L36.648 14.2491L37.7658 13.1314C37.8404 13.0569 37.8996 12.9683 37.9398 12.8708C37.98 12.7733 38.0005 12.6688 38 12.5633ZM34.9144 16.1237L30.8886 16.7947L32.2145 15.4689C32.5059 15.6004 32.8342 15.6256 33.1422 15.54C33.4503 15.4544 33.7185 15.2635 33.9003 15.0005C34.0821 14.7374 34.1658 14.419 34.137 14.1006C34.1081 13.7822 33.9685 13.484 33.7424 13.2579C33.5164 13.0319 33.2182 12.8922 32.8998 12.8634C32.5814 12.8346 32.2629 12.9183 31.9999 13.1001C31.7369 13.2818 31.546 13.5501 31.4604 13.8581C31.3748 14.1662 31.3999 14.4945 31.5315 14.7859L30.2056 16.1117L30.8766 12.086L32.8975 11.3283L35.6717 14.1029L34.9144 16.1237ZM32.3752 14.2234C32.3752 14.1439 32.3988 14.0663 32.4429 14.0002C32.4871 13.9341 32.5498 13.8826 32.6232 13.8522C32.6966 13.8218 32.7774 13.8138 32.8553 13.8293C32.9333 13.8448 33.0049 13.8831 33.0611 13.9393C33.1172 13.9955 33.1555 14.0671 33.171 14.145C33.1865 14.2229 33.1786 14.3037 33.1482 14.3771C33.1177 14.4506 33.0662 14.5133 33.0002 14.5574C32.9341 14.6016 32.8564 14.6252 32.777 14.6252C32.6704 14.6252 32.5682 14.5828 32.4929 14.5075C32.4175 14.4321 32.3752 14.3299 32.3752 14.2234ZM36.2322 13.2993L33.701 10.7682L34.4379 10.0314L36.969 12.5625L36.2322 13.2993Z" fill="#1E1E1E"/>
</svg>
