<svg width="60" height="60" viewBox="0 0 60 60" fill="none" xmlns="http://www.w3.org/2000/svg">
<path d="M23.2256 15.8381C23.3168 15.9027 23.4265 15.9358 23.5381 15.9324C23.6498 15.929 23.7573 15.8894 23.8444 15.8194C24.6732 15.2709 25.6703 15.0356 26.6569 15.1556C26.7235 15.1642 26.7913 15.1593 26.856 15.1412C26.9207 15.123 26.9812 15.092 27.0337 15.05C27.0861 15.008 27.1296 14.9559 27.1616 14.8967C27.1935 14.8376 27.2131 14.7726 27.2194 14.7056C27.2331 14.5716 27.1936 14.4375 27.1095 14.3323C27.0253 14.2271 26.9032 14.1592 26.7694 14.1431C25.5146 13.9783 24.2437 14.2893 23.2069 15.015C23.1439 15.0643 23.0933 15.1276 23.0591 15.1998C23.0249 15.2721 23.0081 15.3513 23.0099 15.4313C23.0117 15.5112 23.0322 15.5896 23.0696 15.6602C23.1071 15.7309 23.1605 15.7918 23.2256 15.8381ZM36.3525 15.8288C36.4402 15.8957 36.5471 15.9328 36.6575 15.9345C36.7679 15.9362 36.8759 15.9024 36.9656 15.8381C37.0307 15.792 37.0842 15.7312 37.1216 15.6608C37.1591 15.5903 37.1795 15.512 37.1813 15.4322C37.1832 15.3524 37.1663 15.2733 37.1321 15.2012C37.0979 15.1291 37.0473 15.066 36.9844 15.0169C35.9456 14.2955 34.6765 13.9843 33.4219 14.1431C33.2904 14.1632 33.1718 14.2336 33.0911 14.3393C33.0104 14.445 32.9739 14.578 32.9892 14.7101C33.0045 14.8422 33.0704 14.9633 33.1732 15.0478C33.2759 15.1322 33.4074 15.1736 33.54 15.1631C34.5269 15.042 35.5246 15.2781 36.3525 15.8288ZM22.7006 19.275C22.9819 18.1125 24.0319 17.25 25.2881 17.25C26.5819 17.25 27.6694 18.1688 27.9131 19.4063C27.9274 19.4702 27.9269 19.5365 27.9117 19.6002C27.8965 19.6639 27.867 19.7233 27.8255 19.7739C27.7839 19.8245 27.7314 19.8649 27.6718 19.8922C27.6123 19.9195 27.5473 19.9328 27.4819 19.9313H27.3319C27.3694 19.7813 27.3881 19.6313 27.3881 19.4813C27.3881 18.5438 26.6194 17.775 25.6819 17.775C25.4194 17.7755 25.1606 17.8363 24.9255 17.9528C24.6903 18.0692 24.485 18.2382 24.3256 18.4466C24.1661 18.655 24.0567 18.8973 24.0057 19.1547C23.9548 19.4121 23.9638 19.6778 24.0319 19.9313H23.2069C22.8694 19.9313 22.6256 19.6125 22.7006 19.275ZM37.0256 19.275C36.7444 18.1125 35.6944 17.25 34.4381 17.25C33.1444 17.25 32.0569 18.1688 31.8131 19.4063C31.7569 19.6875 31.9631 19.9313 32.2444 19.9313H32.3944C32.3263 19.6778 32.3173 19.4121 32.3682 19.1547C32.4192 18.8973 32.5286 18.655 32.6881 18.4466C32.8475 18.2382 33.0528 18.0692 33.288 17.9528C33.5231 17.8363 33.7819 17.7755 34.0444 17.775C34.3068 17.7755 34.5656 17.8363 34.8008 17.9528C35.0359 18.0692 35.2412 18.2382 35.4007 18.4466C35.5602 18.655 35.6696 18.8973 35.7205 19.1547C35.7714 19.4121 35.7625 19.6778 35.6944 19.9313H36.5194C36.8569 19.9313 37.1006 19.6125 37.0256 19.275Z" fill="#1E1E1E"/>
<path d="M26.6569 19.4625C26.6569 18.9187 26.2256 18.4875 25.6819 18.4875C25.5463 18.4856 25.412 18.5131 25.2881 18.5681C25.3142 18.5977 25.3343 18.6321 25.3471 18.6693C25.3599 18.7066 25.3652 18.7461 25.3628 18.7854C25.3603 18.8248 25.3502 18.8633 25.3329 18.8987C25.3155 18.9341 25.2914 18.9658 25.2619 18.9919C25.2323 19.018 25.1979 19.038 25.1606 19.0508C25.1234 19.0636 25.0839 19.0689 25.0446 19.0665C25.0052 19.0641 24.9667 19.0539 24.9313 19.0366C24.8959 19.0193 24.8642 18.9952 24.8381 18.9656C24.7548 19.1088 24.7093 19.2709 24.7061 19.4366C24.7028 19.6023 24.7418 19.7661 24.8194 19.9125H26.5444C26.6194 19.7812 26.6569 19.6312 26.6569 19.4625ZM33.6994 18.5494C33.8843 18.4761 34.0873 18.4616 34.2808 18.5078C34.4743 18.5541 34.6488 18.6588 34.7806 18.8078C34.9124 18.9568 34.995 19.1428 35.0173 19.3405C35.0395 19.5382 35.0003 19.7379 34.905 19.9125H33.18C33.0969 19.7549 33.0585 19.5776 33.0691 19.3997C33.0797 19.2219 33.1388 19.0504 33.24 18.9037C33.2582 18.9457 33.2858 18.9829 33.3205 19.0126C33.3553 19.0422 33.3964 19.0636 33.4407 19.0749C33.485 19.0863 33.5313 19.0873 33.5761 19.0781C33.6209 19.0688 33.6629 19.0494 33.699 19.0214C33.7352 18.9933 33.7644 18.9574 33.7846 18.9164C33.8047 18.8753 33.8152 18.8302 33.8152 18.7845C33.8152 18.7388 33.8048 18.6937 33.7847 18.6526C33.7647 18.6115 33.7355 18.5774 33.6994 18.5494ZM28.2694 22.5375L29.2631 19.3312C29.4881 18.6187 30.4819 18.6187 30.6881 19.3312L31.6819 22.5375C31.8881 23.1937 31.4006 23.8687 30.7069 23.8687H29.2444C28.5506 23.8687 28.0631 23.1937 28.2694 22.5375ZM29.8631 25.65C28.8506 25.65 27.8944 25.4062 27.0881 24.975C26.8069 24.825 26.5256 25.1437 26.6944 25.4062C27.3694 26.4375 28.5319 27.1312 29.8631 27.1312C31.1944 27.1312 32.3569 26.4375 33.0319 25.4062C33.2006 25.1437 32.9006 24.8437 32.6381 24.975C31.8319 25.4062 30.8756 25.65 29.8631 25.65Z" fill="#1E1E1E"/>
<path d="M16.65 19.32V20.3925C16.7925 21.4781 17.3625 22.4287 18.1875 23.07V24.15C18.1886 25.0895 18.4531 26.0098 18.9509 26.8066C19.4487 27.6033 20.1599 28.2446 21.0037 28.6575C21.135 28.8863 21.2788 29.1075 21.435 29.3212H20.7544L20.7806 29.355H10.5C9.46875 29.355 8.61375 30.21 8.61375 31.2844V48.8644C7.39436 49.0832 6.24794 49.5999 5.27642 50.3687C4.30489 51.1374 3.53837 52.1342 3.045 53.2706L3.04125 53.2781C2.25938 55.1156 3.57188 57.1875 5.61 57.1875H54.3975C56.3569 57.1875 57.7594 55.1963 56.9887 53.34L56.985 53.3306C56.4956 52.1819 55.7284 51.1727 54.7525 50.3938C53.7766 49.6149 52.6224 49.0906 51.3937 48.8681V31.2844C51.3937 30.21 50.5387 29.355 49.5075 29.355H38.5762C38.7045 29.1768 38.8264 28.9942 38.9419 28.8075C39.8583 28.4264 40.6413 27.7825 41.1923 26.957C41.7432 26.1314 42.0373 25.1612 42.0375 24.1688V22.6069C42.7227 21.8638 43.1052 20.8914 43.11 19.8806V19.8562C43.1118 18.8373 42.7295 17.8552 42.0394 17.1056V16.35C42.0394 15.9694 42.1631 15.5738 42.3956 15.2363C42.9188 14.4919 43.245 13.6294 43.35 12.7387V11.4956C43.2262 10.4899 42.8219 9.53922 42.1833 8.7524C41.5446 7.96558 40.6975 7.37433 39.7388 7.04625L39.7294 7.0425C38.8658 6.76285 38.1282 6.18797 37.6462 5.41875C37.1635 4.62369 36.4842 3.96629 35.6737 3.50983C34.8632 3.05337 33.9489 2.81322 33.0188 2.8125C32.2688 2.8125 31.545 2.97 30.9075 3.24375L30.9019 3.2475C30.6595 3.35388 30.3978 3.40881 30.1331 3.40881C29.8685 3.40881 29.6067 3.35388 29.3644 3.2475L29.3456 3.24C28.6809 2.9596 27.9671 2.81428 27.2456 2.8125C26.3336 2.80948 25.4358 3.03914 24.6372 3.47977C23.8386 3.9204 23.1657 4.55743 22.6819 5.33062C22.1756 6.12937 21.4069 6.74062 20.5256 7.04437C19.2329 7.48732 18.1561 8.40392 17.5125 9.60937C16.5338 11.4337 16.7437 13.6031 17.8425 15.2025C18.0675 15.5494 18.1894 15.9506 18.1894 16.3312V16.6425L18.0994 16.7175C17.3231 17.355 16.7888 18.2737 16.65 19.32ZM37.2431 27.99C36.9881 28.38 36.6962 28.7375 36.3675 29.0625H23.6719L23.475 28.86C22.5687 27.8836 21.9859 26.6513 21.8063 25.3312L21.5906 22.0463L20.685 22.05C20.127 22.0491 19.5904 21.8357 19.1842 21.4531C18.7781 21.0705 18.533 20.5475 18.4988 19.9906C18.4646 19.4337 18.644 18.8846 19.0003 18.4553C19.3566 18.0259 19.8632 17.7484 20.4169 17.6794L21.2981 17.5706L21.1369 15.1219C21.161 13.6901 21.7462 12.325 22.7666 11.3203C23.7871 10.3156 25.1611 9.75176 26.5931 9.75H29.0306C29.1007 9.75187 29.1688 9.77439 29.2261 9.81475C29.2835 9.85511 29.3277 9.91151 29.3531 9.97687L29.3569 9.98437C29.7998 10.9627 30.5162 11.7921 31.4198 12.3726C32.3233 12.9531 33.3754 13.26 34.4494 13.2562H37.1044C37.5817 13.2857 38.0289 13.4991 38.352 13.8516C38.6751 14.2041 38.8489 14.6682 38.8369 15.1462L38.8144 16.095L38.7244 17.5406L39.5119 17.7131C39.8756 17.7919 40.2056 17.9606 40.4775 18.1969L40.485 18.2044C40.5425 18.2531 40.5969 18.3056 40.6481 18.3619C40.849 18.5767 41.0045 18.8298 41.1053 19.106C41.2062 19.3822 41.2503 19.676 41.2351 19.9697C41.2198 20.2633 41.1456 20.5509 41.0167 20.8153C40.8878 21.0796 40.707 21.3152 40.485 21.5081L40.4775 21.5156C40.1313 21.8165 39.6988 22.0003 39.2419 22.0406L38.4394 22.1137L38.2406 25.3312C38.1062 26.2797 37.7657 27.1872 37.2431 27.99ZM4.76813 54.015C5.10354 53.2422 5.6077 52.5543 6.24362 52.0018C6.87953 51.4493 7.63108 51.0461 8.44313 50.8219V55.3125H5.61188C5.458 55.3123 5.30661 55.2737 5.17143 55.2002C5.03625 55.1267 4.92155 55.0206 4.83775 54.8915C4.75395 54.7625 4.70369 54.6146 4.69153 54.4612C4.67937 54.3078 4.7057 54.1538 4.76813 54.0131M51.5681 50.8256C52.3867 51.0544 53.1435 51.4639 53.7827 52.024C54.422 52.5841 54.9275 53.2805 55.2619 54.0619C55.3156 54.2014 55.3344 54.352 55.3167 54.5005C55.2991 54.649 55.2454 54.791 55.1604 54.914C55.0754 55.0371 54.9617 55.1375 54.829 55.2066C54.6964 55.2758 54.5489 55.3115 54.3994 55.3106H51.5681V50.8256ZM27.8494 39.9319H32.1544C32.403 39.9319 32.6415 40.0306 32.8173 40.2065C32.9931 40.3823 33.0919 40.6207 33.0919 40.8694V45.2756C33.0919 45.5243 32.9931 45.7627 32.8173 45.9385C32.6415 46.1144 32.403 46.2131 32.1544 46.2131H27.8494C27.6007 46.2131 27.3623 46.1144 27.1865 45.9385C27.0106 45.7627 26.9119 45.5243 26.9119 45.2756V40.8694C26.9119 40.6207 27.0106 40.3823 27.1865 40.2065C27.3623 40.0306 27.6007 39.9319 27.8494 39.9319Z" fill="#1E1E1E"/>
</svg>
