<svg width="60" height="60" viewBox="0 0 60 60" fill="none" xmlns="http://www.w3.org/2000/svg">
<path fill-rule="evenodd" clip-rule="evenodd" d="M40.965 10C42.6683 9.58667 44.335 9.06167 45.965 8.425C46.0846 8.30598 46.1635 8.15218 46.1905 7.98559C46.2174 7.819 46.191 7.64816 46.115 7.4975C45.865 6.7725 45.14 6.7975 40.69 7.6975C40.3433 7.66173 39.9929 7.69885 39.6614 7.80649C39.3299 7.91412 39.0245 8.08989 38.765 8.3225C38.2038 9.67018 37.7751 11.0693 37.485 12.5C35.5333 12.35 33.5825 12.35 31.6325 12.5C30.9575 12.5 23.2775 12.175 21.625 13.375C20.575 14.15 20.9 15.5 21.075 16.6275C21.37 18.8775 21.8375 21.1025 22.475 23.28C21.9789 23.6692 21.5904 24.1787 21.3466 24.7603C21.1027 25.3418 21.0116 25.9759 21.0817 26.6026C21.1518 27.2292 21.3809 27.8276 21.7473 28.3408C22.1137 28.854 22.6051 29.2651 23.175 29.535C23.8963 29.8209 24.6874 29.8809 25.4435 29.7069C26.1997 29.5329 26.8851 29.1333 27.4089 28.5609C27.9327 27.9886 28.2702 27.2705 28.3767 26.502C28.4831 25.7334 28.3535 24.9507 28.005 24.2575H32.205C30.505 27.5825 34.7075 30.185 37.585 28.5825C38.1204 28.2716 38.5633 27.8235 38.8678 27.2844C39.1723 26.7453 39.3274 26.1347 39.3172 25.5157C39.307 24.8966 39.1319 24.2914 38.8098 23.7627C38.4877 23.2339 38.0304 22.8006 37.485 22.5075C39.16 15.4025 39.535 16.1275 40.96 10M26.125 25.8825C25.8 27.3325 23.625 27.4075 23.625 25.8825C23.825 23.5825 26.6 23.6825 26.125 25.8825ZM24.975 21.8825C24.975 21.6325 24.725 21.305 24.7 21.18L23.825 16.3775C23.825 15.6775 22.75 16.0525 27.225 15.2275C36.5825 14.3525 33.055 14.3775 36.9325 14.2025C36.3063 16.7319 35.9708 19.3245 35.9325 21.93C35.133 21.8746 34.3388 22.0952 33.6825 22.555C31.68 22.28 25.425 21.905 24.975 21.88M36.5325 26.18C35.9968 26.2681 35.447 26.1895 34.9575 25.955C33.08 25.13 37.4575 21.605 37.4575 25.255C37.4098 25.4994 37.2841 25.7216 37.0992 25.8884C36.9144 26.0552 36.6804 26.1575 36.4325 26.18H36.5325ZM17.3 36.3125C17.1396 36.2035 16.9433 36.1609 16.7522 36.1935C16.5611 36.2262 16.3901 36.3315 16.275 36.4875C14.725 38.4875 13.3425 40.6125 12.15 42.8425C11.8996 43.225 11.7879 43.6818 11.8334 44.1367C11.8789 44.5915 12.0789 45.0171 12.4 45.3425C14.9 47.2925 41.49 47.57 48.795 45.9175C51.295 45.3675 47.92 40.5675 46.1175 37.29C45.4675 36.265 44.0175 36.015 44.2675 37.29L45.3675 39.615L36.5375 39.14C36.3375 38.29 36.2125 37.715 36.1375 37.29C36.0814 37.0198 35.934 36.7772 35.72 36.603C35.5059 36.4288 35.2384 36.3337 34.9625 36.3337C34.6865 36.3337 34.419 36.4288 34.205 36.603C33.991 36.7772 33.8435 37.0198 33.7875 37.29C33.7534 37.8728 33.7534 38.4572 33.7875 39.04C31.585 39.04 29.3825 38.89 26.28 39.04C26.555 38.265 26.755 37.765 26.905 37.365C27.105 36.115 25.005 35.89 24.255 37.365C24.08 37.69 23.805 38.19 23.305 39.165C20.0775 39.315 17.45 39.49 16.175 39.59C16.7 38.115 18.275 36.99 17.3 36.315M45.3175 41.1675C45.4456 41.1636 45.571 41.13 45.6838 41.0693C45.7966 41.0085 45.8938 40.9223 45.9675 40.8175C46.4925 41.9425 46.9675 43.0175 47.2675 43.845C44.7675 44.07 39.7625 44.095 37.1375 44.095C37.1375 43.495 36.8875 43.07 36.8375 41.595C40.1875 41.42 43.215 41.22 45.3175 41.17M25.055 41.47C28.112 41.6366 31.1745 41.6783 34.235 41.595C34.935 44.0975 34.76 43.5725 34.935 44.0975H23.305C23.63 43.6225 24.305 42.7225 24.98 41.4725L25.055 41.47ZM22.205 41.32C21.98 41.795 21.405 43.2475 21.13 44.0475C20.0025 44.0475 15.45 43.9225 14.325 43.7975C14.945 42.8975 15.385 41.8875 15.625 40.8225C15.825 40.9225 22.0025 41.295 22.205 41.32Z" fill="#0D99FF"/>
<path fill-rule="evenodd" clip-rule="evenodd" d="M60 46.52C59.8 44.67 52.77 35.3375 51.37 34.4125C53.0706 28.5823 54.2584 22.6146 54.92 16.5775C55.27 12.9025 56.3225 8.2475 55.17 4.47C53.695 -0.005 35.31 0.87 29.9825 0.895C23.6956 0.761227 17.415 1.37384 11.2725 2.72C8.77249 3.345 5.24499 3.92 4.66999 6.545C3.36999 12.025 8.36999 31.635 9.96999 34.8375C10.42 35.7375 11.3975 34.5375 9.96999 36.0375C7.46999 38.5375 2.06749 44.2175 0.717491 46.045C0.307302 46.6776 0.0645793 47.4041 0.0121041 48.1563C-0.040371 48.9084 0.0991218 49.6615 0.417491 50.345C0.0724907 51.395 0.00249068 52.515 0.217491 53.5975C0.104991 54.74 0.357491 55.8875 0.942491 56.875C3.76749 59.9 52.145 59.375 56.2475 58.55C58.8975 57.95 58.7475 56.05 59.1475 53.55C59.176 53.3347 59.1186 53.1169 58.9875 52.9437C58.8565 52.7705 58.6624 52.656 58.4475 52.625C57.0225 52.425 57.6975 54.75 56.9475 56.025C56.1975 57.3 56.4975 56.75 34.21 56.45C25.03 56.325 3.06749 56.45 2.19249 55.575C1.86104 54.2392 1.66835 52.8728 1.61749 51.4975C7.56999 53.9975 47.9175 52.5725 54.3725 52.3225C54.5936 52.316 54.8034 52.2236 54.9574 52.0649C55.1115 51.9062 55.1976 51.6937 55.1975 51.4725C55.1975 50.1725 55.9475 50.8475 17.325 50.0975C11.0225 50.0975 5.71999 49.8475 3.24249 49.4725C2.51749 49.4725 2.29249 49.7725 2.24249 48.3725C2.20507 48.0067 2.28379 47.6385 2.46749 47.32C4.46749 44.195 12.0975 35.9875 12.1975 35.7875C12.2975 35.5875 11.8725 34.7375 11.2725 34.8625C11.3343 34.7608 11.367 34.644 11.367 34.525C11.367 34.406 11.3343 34.2892 11.2725 34.1875C9.69749 30.8625 5.44499 11.875 6.64499 7.0225C6.76999 6.4725 7.34499 6.1975 7.94499 5.9475C11.5063 4.87897 15.171 4.19178 18.8775 3.8975C24.38 3.42 39.4875 3.57 40.79 3.595C54.7975 4.02 51.495 5.92 52.495 5.42C52.82 6.7375 52.9375 8.095 52.845 9.4475C52.2444 17.2876 51.1084 25.0774 49.445 32.7625C48.97 32.7625 47.92 33.1125 46.945 33.1625C38.4875 33.5625 16.425 33.5625 13.775 33.6375C13.5123 33.6273 13.2537 33.7055 13.0407 33.8596C12.8277 34.0137 12.6725 34.2348 12.6 34.4875C12.6 35.5625 13.875 35.2875 15.25 35.2875C53.5225 35.5625 50.12 35.2875 50.27 35.6125C50.42 35.9375 50.42 35.8375 50.57 36.0875C52.6278 40.0013 55.0752 43.6975 57.875 47.12L58.55 50.02C58.55 50.1152 58.5687 50.2095 58.6052 50.2974C58.6416 50.3854 58.695 50.4653 58.7623 50.5326C58.8297 50.6 58.9096 50.6534 58.9975 50.6898C59.0855 50.7262 59.1798 50.745 59.275 50.745C59.3702 50.745 59.4645 50.7262 59.5524 50.6898C59.6404 50.6534 59.7203 50.6 59.7876 50.5326C59.855 50.4653 59.9084 50.3854 59.9448 50.2974C59.9812 50.2095 60 50.1152 60 50.02V46.52Z" fill="#0D99FF"/>
</svg>
