<svg width="50" height="50" viewBox="0 0 50 50" fill="none" xmlns="http://www.w3.org/2000/svg">
<path d="M22.5625 14.8125C27.225 9.55621 34.4792 7.29163 41.1458 7.29163C41.5602 7.29163 41.9577 7.45625 42.2507 7.74927C42.5437 8.0423 42.7083 8.43973 42.7083 8.85413C42.7083 15.5208 40.4438 22.775 35.1875 27.4375C35.0604 29.5541 34.4063 31.6729 33.4708 33.5333C32.4292 35.6041 30.9813 37.4645 29.3604 38.6958C27.775 39.9 25.725 40.702 23.7 39.9479C21.7833 39.2333 20.4917 37.3437 19.7417 34.6604L15.3396 30.2562C12.6563 29.5083 10.7667 28.2166 10.0521 26.3C9.29793 24.275 10.1 22.225 11.3042 20.6395C12.5354 19.0187 14.3958 17.5708 16.4667 16.5291C18.3271 15.5937 20.4458 14.9395 22.5604 14.8145M19.7917 18.525C19.1332 18.7449 18.4913 19.0115 17.8708 19.3229C16.1292 20.2 14.6771 21.3687 13.7938 22.5312C12.8833 23.7312 12.7667 24.6354 12.9813 25.2104C13.1542 25.6812 13.7146 26.3708 15.2604 26.952C15.6125 26.1625 16.1188 25.0708 16.7542 23.8187C17.5625 22.2291 18.5917 20.3583 19.7917 18.525ZM23.05 34.7437C23.6292 36.2895 24.3208 36.8479 24.7917 37.025C25.3646 37.2375 26.2708 37.1208 27.4708 36.2125C28.6333 35.327 29.8021 33.875 30.6792 32.1333C30.9945 31.5069 31.2604 30.8666 31.4771 30.2125C29.7695 31.32 28.003 32.3339 26.1854 33.25C24.9313 33.8854 23.8396 34.3916 23.05 34.7437ZM10.4896 33.3437C11.3294 32.6422 12.3974 32.2734 13.4911 32.3072C14.5848 32.3409 15.6281 32.775 16.4229 33.527L16.4417 33.5479C18.1063 35.1937 18.0792 37.827 16.6563 39.5166C16.0417 40.25 15.2021 40.7791 14.4125 41.1666C13.6063 41.5625 12.7375 41.8604 11.9646 42.0833C11.0354 42.3476 10.0905 42.5529 9.13543 42.6979L9.08543 42.7041L9.06876 42.7062H9.06251C8.82455 42.7381 8.58245 42.7147 8.355 42.6378C8.12754 42.5609 7.92086 42.4327 7.751 42.263C7.58113 42.0934 7.45264 41.8868 7.37552 41.6595C7.29839 41.4321 7.27469 41.19 7.30626 40.952V40.9458L7.30835 40.9291L7.31668 40.8791C7.35489 40.6078 7.40074 40.3375 7.45418 40.0687C7.5521 39.5458 7.70626 38.827 7.92918 38.0458C8.1629 37.203 8.4689 36.3819 8.84376 35.5916C9.22918 34.8 9.75835 33.9625 10.4896 33.3437ZM32.6813 17.125C32.3883 16.8324 31.9912 16.668 31.5771 16.668C31.163 16.668 30.7659 16.8324 30.4729 17.125L29 18.5979C28.724 18.8941 28.5738 19.2858 28.5809 19.6906C28.588 20.0954 28.752 20.4816 29.0383 20.7679C29.3246 21.0542 29.7108 21.2182 30.1156 21.2253C30.5204 21.2325 30.9121 21.0822 31.2083 20.8062L32.6813 19.3333C32.9739 19.0403 33.1382 18.6432 33.1382 18.2291C33.1382 17.8151 32.9739 17.4179 32.6813 17.125Z" fill="#14AE5C"/>
</svg>
